<?xml version="1.0" encoding="UTF-8"?>
<!-- Generator: Adobe Illustrator 15.0.0, SVG Export Plug-In . SVG Version: 6.00 Build 0)  -->
<!DOCTYPE svg PUBLIC "-//W3C//DTD SVG 1.1//EN" "http://www.w3.org/Graphics/SVG/1.1/DTD/svg11.dtd">
<svg version="1.1" id="Layer_1" xmlns="http://www.w3.org/2000/svg" xmlns:xlink="http://www.w3.org/1999/xlink" x="0px" y="0px" width="244px" height="63px" viewBox="0 0 244 63" enable-background="new 0 0 244 63" xml:space="preserve">
<g>
	<path fill="#FFFFFF" d="M20.604,0L20.604,0h0.002H20.604z M32.633,49.986c-4.079,6.199-12.003,12.281-12.028,12.303h0.001h-0.001   h-0.001h0h0h0.001c-0.025-0.021-7.95-6.104-12.029-12.303C-3.458,31.708,0.691,1.24,0.691,1.24S8.349,0,20.604,0   c12.255,0,19.913,1.24,19.913,1.24S44.667,31.707,32.633,49.986z M40.549,18.754c0.402-8.479-0.315-15.351-0.516-17.042   c-1.72-0.247-8.912-1.173-19.429-1.173S2.896,1.467,1.175,1.712c-0.2,1.692-0.917,8.563-0.516,17.042   c0.424,8.961,2.219,21.602,8.365,30.939c3.533,5.366,10.052,10.697,11.581,11.912c1.545-1.225,8.021-6.508,11.578-11.912   C38.33,40.355,40.125,27.714,40.549,18.754z M9.759,20.063c0.158-1.474-1.08-2.569-1.672-3.005   c-1.766-0.912-3.031-3.006-1.843-5.177c1.088-1.983,1.167-2.784,0.978-3.09C7.034,8.486,5.805,8.609,5.805,8.609   s-0.156,0.05-0.35,0.067L5.449,8.153c0,0-0.106-0.227-0.249-0.114c0,0,0.084,0.05,0.092,0.207C5.3,8.403,5.278,8.693,5.278,8.693   c-0.03,0.353-0.109,0.684-0.216,0.972C5.106,9.724,5.185,9.787,5.23,9.837c0.025,0.025,0.125,0.154,0.067,0.329   c-0.069,0.169-0.18,0.416-0.242,0.482c-0.067,0.083-0.078,0.239-0.112,0.242c-0.003-0.013-0.084-0.178-0.145-0.239   c-0.008-0.014-0.031-0.028-0.059-0.042c-0.078,0.17-0.187,0.275-0.254,0.313c-0.099,0.053-0.283,0.07-0.344,0.059   c-0.066-0.01-0.161,0.056-0.253,0.091c-0.005-0.031,0.014-0.109,0.006-0.188c-0.004-0.057-0.087-0.09-0.094-0.212   c-0.002-0.033-0.012-0.304,0.13-0.466C3.774,10.177,3.624,10.075,3.593,10C3.92,9.874,3.886,9.438,4.186,9.391   c0.107-0.016,0.449,0.125,0.59,0.153c0.12-0.331,0.18-0.665,0.211-0.934C4.842,8.543,4.731,8.419,4.723,8.185   c0,0-1.137-0.306-1.546,0.338c0,0-0.976-1.664,2.85-1.325c0,0,0.614-0.548,1.493-0.369c1.982,0.411,2.714-0.104,2.959-0.38   c0,0-0.843,1.599-1.604,2.179c-0.714,0.544-2.396,3.356-0.364,3.608c-0.513-0.994-0.744-1.848,0.556-1.044   c0,0,1.7,1.227,2.653-1.256c0,0-0.214-0.479,0.469-0.658c0.684-0.181,4.987-0.107,7.08-1.667c0,0-0.21,1.437-0.85,3.062   l-1.48-0.227l1.329,0.598c-0.315,0.735-0.716,1.489-1.228,2.152l-1.279-0.696l1.017,1.014c-0.632,0.727-1.411,1.309-2.37,1.575   l-0.953-1.785l0.482,1.887c-0.342,0.055-0.704,0.076-1.088,0.046c-0.146-0.011-0.295-0.031-0.447-0.055   c1.063,1.16,1.968,2.543,2.012,3.917c0,0-0.677-1.63-2.063-1.834l0.299,0.78c0,0-1.311-0.731-2.062-0.577   c-0.022,0.005-0.044,0.007-0.067,0.012c-0.618,1.277-0.177,2.921-0.177,2.921c0.978,0.203,1.894,0.727,1.894,0.727   c-1.674-0.179-2.302-0.25-3.47-0.145c-0.614,0.054-1.357,0.558-1.357,0.558C7.494,20.523,9.759,20.063,9.759,20.063z M7.576,7.591   c0.091-0.013,0.142-0.04,0.118-0.054C7.666,7.533,7.382,7.466,7.245,7.433C7.104,7.401,6.936,7.317,6.732,7.317   c-0.172,0-0.934,0.398-0.934,0.398c0.035,0.014,0.524-0.158,0.625-0.178c0.104-0.016,0.095-0.004,0.151,0   C6.582,7.645,6.67,7.671,6.806,7.673c0.137,0,0.228-0.086,0.254-0.121C7.22,7.604,7.461,7.607,7.576,7.591z M9.811,18.431V17.68   l-0.647-0.162c0.082,0.066,0.153,0.13,0.215,0.191c0.009,0.007,0.016,0.017,0.024,0.025c0.039,0.039,0.073,0.075,0.105,0.11   c0.029,0.032,0.058,0.064,0.084,0.099c0.007,0.01,0.016,0.019,0.022,0.029C9.725,18.119,9.811,18.281,9.811,18.431z M31.427,9.278   c0.684-0.181,4.987-0.107,7.081-1.667c0,0-0.211,1.437-0.85,3.062l-1.481-0.227l1.329,0.598c-0.314,0.735-0.716,1.489-1.228,2.152   l-1.279-0.696l1.017,1.014c-0.631,0.727-1.41,1.309-2.37,1.575l-0.952-1.785l0.481,1.887c-0.342,0.055-0.702,0.076-1.087,0.046   c-0.146-0.011-0.295-0.031-0.448-0.055c1.064,1.16,1.969,2.543,2.013,3.917c0,0-0.677-1.63-2.064-1.834l0.299,0.78   c0,0-1.311-0.731-2.061-0.577c-0.022,0.005-0.046,0.007-0.068,0.012c-0.619,1.277-0.177,2.921-0.177,2.921   c0.977,0.203,1.894,0.727,1.894,0.727c-1.675-0.179-2.302-0.25-3.471-0.145c-0.612,0.054-1.357,0.558-1.357,0.558   c0.083-1.02,2.348-1.48,2.348-1.48c0.159-1.474-1.079-2.569-1.672-3.005c-1.765-0.912-3.032-3.006-1.843-5.177   c1.089-1.983,1.167-2.784,0.979-3.09c-0.188-0.304-1.417-0.181-1.417-0.181s-0.157,0.05-0.351,0.067l-0.005-0.524   c0,0-0.108-0.227-0.249-0.114c0,0,0.085,0.05,0.092,0.207c0.007,0.157-0.014,0.447-0.014,0.447   c-0.03,0.353-0.109,0.684-0.216,0.972c0.044,0.059,0.124,0.122,0.168,0.172c0.026,0.025,0.125,0.154,0.068,0.329   c-0.07,0.169-0.18,0.416-0.242,0.482c-0.068,0.083-0.077,0.239-0.112,0.242c-0.004-0.013-0.085-0.178-0.145-0.239   c-0.009-0.014-0.031-0.028-0.06-0.042c-0.077,0.17-0.187,0.275-0.253,0.313c-0.1,0.053-0.284,0.07-0.345,0.059   c-0.067-0.01-0.161,0.056-0.253,0.091c-0.004-0.031,0.015-0.109,0.006-0.188c-0.003-0.057-0.086-0.09-0.093-0.212   c-0.002-0.033-0.012-0.304,0.13-0.466c-0.157-0.029-0.307-0.131-0.337-0.206c0.326-0.127,0.292-0.563,0.592-0.609   c0.105-0.016,0.447,0.125,0.588,0.153c0.122-0.331,0.181-0.665,0.211-0.934c-0.143-0.068-0.254-0.191-0.263-0.426   c0,0-1.136-0.306-1.545,0.338c0,0-0.977-1.664,2.85-1.325c0,0,0.615-0.548,1.493-0.369c1.982,0.411,2.714-0.104,2.959-0.38   c0,0-0.841,1.599-1.603,2.179c-0.715,0.544-2.396,3.356-0.365,3.608c-0.511-0.994-0.743-1.848,0.556-1.044   c0,0,1.7,1.227,2.653-1.256C30.958,9.936,30.745,9.457,31.427,9.278z M26.814,7.591c0.09-0.013,0.141-0.04,0.117-0.054   c-0.027-0.004-0.312-0.071-0.448-0.104c-0.142-0.032-0.31-0.116-0.514-0.116c-0.173,0-0.934,0.398-0.934,0.398   c0.036,0.014,0.525-0.158,0.624-0.178c0.105-0.016,0.095-0.004,0.152,0c0.006,0.107,0.095,0.134,0.231,0.136   c0.136,0,0.229-0.086,0.254-0.121C26.457,7.604,26.699,7.607,26.814,7.591z M29.048,17.68l-0.647-0.162   c0.082,0.066,0.153,0.13,0.215,0.191c0.008,0.007,0.017,0.017,0.024,0.025c0.04,0.039,0.072,0.075,0.105,0.11   c0.029,0.032,0.057,0.064,0.084,0.099c0.007,0.01,0.016,0.019,0.022,0.029c0.109,0.146,0.196,0.308,0.196,0.458V17.68z    M22.529,40.822c0.859-0.229,6.265-0.135,8.895-2.094c0,0-0.265,1.803-1.068,3.846l-1.859-0.281l1.667,0.75   c-0.394,0.922-0.899,1.869-1.542,2.701l-1.606-0.873l1.278,1.273c-0.794,0.911-1.772,1.644-2.977,1.979l-1.196-2.24l0.605,2.367   c-0.43,0.068-0.883,0.096-1.367,0.059c-0.182-0.014-0.37-0.037-0.561-0.068c1.335,1.457,2.473,3.193,2.527,4.92   c0,0-0.852-2.048-2.593-2.303l0.375,0.979c0,0-1.647-0.917-2.588-0.724c-0.029,0.008-0.058,0.009-0.085,0.015   c-0.777,1.605-0.222,3.67-0.222,3.67c1.227,0.253,2.378,0.912,2.378,0.912c-2.103-0.225-2.891-0.313-4.358-0.184   c-0.77,0.068-1.705,0.703-1.705,0.703c0.104-1.283,2.949-1.858,2.949-1.858c0.199-1.851-1.356-3.229-2.101-3.776   c-2.217-1.146-3.809-3.775-2.314-6.502c1.365-2.492,1.465-3.498,1.227-3.883c-0.236-0.38-1.779-0.227-1.779-0.227   s-0.197,0.063-0.44,0.085l-0.006-0.657c0,0-0.135-0.285-0.313-0.142c0,0,0.107,0.061,0.115,0.256   c0.009,0.198-0.018,0.563-0.018,0.563c-0.036,0.441-0.136,0.859-0.271,1.223c0.056,0.07,0.154,0.151,0.212,0.213   c0.031,0.032,0.157,0.195,0.084,0.414c-0.087,0.214-0.225,0.521-0.304,0.606c-0.084,0.103-0.097,0.3-0.14,0.303   c-0.005-0.014-0.107-0.223-0.183-0.299c-0.012-0.019-0.04-0.036-0.076-0.053c-0.097,0.214-0.233,0.345-0.317,0.392   c-0.126,0.068-0.355,0.091-0.433,0.078c-0.084-0.014-0.203,0.068-0.318,0.111c-0.006-0.039,0.018-0.138,0.007-0.236   c-0.004-0.07-0.109-0.11-0.118-0.266c-0.001-0.041-0.014-0.383,0.165-0.586c-0.198-0.037-0.385-0.164-0.424-0.26   c0.411-0.155,0.368-0.706,0.744-0.764c0.133-0.021,0.563,0.156,0.74,0.191c0.152-0.414,0.226-0.834,0.265-1.172   c-0.18-0.084-0.32-0.24-0.331-0.535c0,0-1.427-0.384-1.94,0.426c0,0-1.228-2.09,3.58-1.664c0,0,0.771-0.689,1.875-0.463   c2.49,0.514,3.41-0.132,3.717-0.477c0,0-1.058,2.007-2.014,2.733c-0.897,0.683-3.008,4.218-0.457,4.534   c-0.645-1.25-0.935-2.322,0.698-1.314c0,0,2.136,1.542,3.332-1.576C21.939,41.648,21.672,41.046,22.529,40.822z M16.733,38.703   c0.115-0.017,0.18-0.051,0.148-0.066c-0.035-0.007-0.391-0.09-0.564-0.131c-0.176-0.04-0.388-0.146-0.645-0.146   c-0.216,0-1.171,0.5-1.171,0.5c0.045,0.018,0.658-0.197,0.784-0.223c0.13-0.02,0.118-0.007,0.19,0   c0.009,0.135,0.12,0.169,0.29,0.17c0.171,0,0.287-0.109,0.319-0.154C16.287,38.719,16.591,38.725,16.733,38.703z M19.542,51.377   l-0.813-0.207c0.103,0.085,0.192,0.166,0.271,0.242c0.01,0.008,0.019,0.02,0.03,0.031c0.05,0.049,0.092,0.096,0.132,0.139   c0.036,0.041,0.072,0.082,0.105,0.125c0.008,0.014,0.019,0.025,0.028,0.038c0.136,0.183,0.246,0.385,0.246,0.575V51.377z    M16.035,27.082c0,0,0.12,0.006,0.26,0.018c0.166,0.016,0.315,0.041,0.315,0.041l-0.176-0.888L16.035,27.082z M31.8,32.381   l-0.419-0.184l0.28,0.673l-0.681-0.328l0.258,0.674c0,0-0.178-0.116-0.492-0.288l0.127,0.355c0,0-0.251,0.146-0.42,0.185   c-0.167,0.036-4.632-3.912-9.748,0.968c-0.546,0.521-0.621,0.699-1.302,0c-4.5-4.617-9.763-0.885-9.763-0.885l-0.281-0.187   l0.158-0.402c-0.306,0.163-0.479,0.274-0.479,0.274l0.333-0.813c-0.466,0.207-0.742,0.365-0.742,0.365l0.277-0.614   c-0.29,0.115-0.45,0.196-0.45,0.196l3.012-7.482c4.121-3.646,8.832-0.191,8.832-0.191s5.074-3.617,8.642,0.152L31.8,32.381z    M13.74,26.368l0.169-0.033l0.056-0.616c-0.358,0.109-0.698,0.202-1.064,0.271c-0.294,0.058-0.61,0.096-0.84,0.11l-0.036,0.117   c0.284-0.017,0.297,0.113,0.196,0.442l-0.383,1.169c-0.09,0.276-0.12,0.396-0.481,0.469l-0.054,0.124   c0.356-0.055,0.486-0.091,0.708-0.135c0.258-0.052,0.508-0.103,0.722-0.149l0.031-0.141c-0.331,0.068-0.411,0.062-0.339-0.212   l0.212-0.66l0.13-0.02c0.213-0.037,0.251,0.132,0.231,0.362l0.122-0.015c0.025-0.163,0.046-0.319,0.071-0.482   c0.03-0.167,0.061-0.333,0.096-0.5l-0.121,0.017c-0.094,0.302-0.182,0.416-0.348,0.449l-0.147,0.027l0.133-0.5   c0.069-0.292,0.122-0.306,0.386-0.361C13.597,26.014,13.743,25.942,13.74,26.368z M15.403,25.791l0.019-0.151   c-0.211,0.017-0.348,0.046-0.56,0.075c-0.203,0.025-0.342,0.032-0.512,0.061l-0.034,0.151c0.294-0.034,0.256,0.082,0.198,0.375   l-0.326,1.101c-0.084,0.34-0.134,0.466-0.454,0.502l-0.047,0.145c0.179-0.018,0.451-0.051,0.628-0.051   c0.211-0.002,0.4-0.002,0.587-0.002l0.023-0.15c-0.308-0.002-0.285-0.095-0.221-0.471l0.293-1.167   C15.04,25.933,15.114,25.825,15.403,25.791z M17.451,28.229c-0.073-0.028-0.195-0.13-0.214-0.218   c-0.031-0.14-0.048-0.191-0.09-0.482c-0.049-0.338-0.362-1.878-0.362-1.878l-0.26-0.031c0,0-0.432,0.959-0.765,1.674   c-0.111,0.246-0.25,0.569-0.519,0.568l-0.023,0.149c0.123,0.005,0.243,0.006,0.364,0.014c0.131,0.011,0.263,0.03,0.394,0.045   l0.021-0.146c-0.114-0.021-0.318-0.048-0.231-0.237c0.063-0.139,0.091-0.187,0.134-0.283l0.057-0.12c0,0,0.143,0.001,0.324,0.024   c0.186,0.021,0.361,0.06,0.361,0.06l0.032,0.151c0.009,0.06,0.03,0.241,0.033,0.304c0.012,0.176-0.173,0.185-0.291,0.168   l-0.025,0.151c0.201,0.024,0.383,0.06,0.54,0.094c0.199,0.047,0.309,0.084,0.5,0.143L17.451,28.229z M19.208,26.551   c0,0-0.315-0.231-0.73-0.405c-0.397-0.17-0.879-0.275-0.879-0.275l-0.096,0.75l0.133,0.045c0.08-0.32,0.107-0.573,0.358-0.482   c0.211,0.074,0.168,0.208,0.14,0.487l-0.145,1.27c-0.036,0.345-0.051,0.447-0.356,0.364l-0.029,0.142   c0.199,0.071,0.378,0.125,0.548,0.194c0.155,0.064,0.329,0.145,0.527,0.249l0.018-0.152c-0.25-0.147-0.283-0.291-0.245-0.638   l0.133-1.275c0.027-0.307,0.065-0.407,0.251-0.315c0.195,0.1,0.188,0.394,0.181,0.73l0.131,0.051L19.208,26.551z M24.132,28.3   l-0.015-0.799l-0.13,0.019c-0.06,0.478-0.236,0.662-0.69,0.809c-0.357,0.119-0.402-0.1-0.42-0.497l-0.063-1.057   c-0.017-0.324-0.044-0.49,0.246-0.582l-0.009-0.165c-0.216,0.053-0.421,0.118-0.615,0.192c-0.145,0.055-0.26,0.108-0.455,0.204   l0.009,0.154c0.313-0.118,0.291,0.053,0.307,0.377l0.073,1.301c0.018,0.321,0.022,0.449-0.254,0.614l0.007,0.148   c0.176-0.097,0.386-0.193,0.554-0.27C22.857,28.678,23.516,28.433,24.132,28.3z M26.091,26.335c0.032-0.12,0.113-0.174,0.208-0.176   l-0.015-0.14c-0.151-0.016-0.223-0.013-0.344-0.029c-0.127-0.017-0.245-0.039-0.382-0.047l0.016,0.139   c0.109,0.014,0.192,0.064,0.254,0.172c0.072,0.119,0.097,0.3,0.113,0.44l0.069,0.534c0.051,0.476,0.063,0.729-0.417,0.748   c-0.449,0.02-0.621-0.276-0.669-0.777l-0.066-0.622c-0.031-0.321-0.032-0.516,0.255-0.521l-0.013-0.14   c-0.233-0.001-0.407-0.003-0.593,0.007c-0.158,0.007-0.334,0.006-0.594,0.028l0.01,0.14c0.302-0.002,0.302,0.164,0.336,0.489   l0.071,0.648c0.075,0.817,0.616,1.028,1.148,1.005c0.826-0.032,0.755-0.39,0.672-1.101l-0.046-0.353   C26.087,26.63,26.05,26.475,26.091,26.335z M28.888,28.727l-0.022-0.136c-0.153-0.026-0.253-0.155-0.374-0.312l-0.714-1.051   l0.285-0.422c0.104-0.163,0.169-0.269,0.332-0.269l-0.049-0.147c-0.108,0.002-0.179,0.006-0.295,0   c-0.108-0.009-0.209-0.018-0.334-0.038l0.012,0.149c0.134,0.019,0.282,0.098,0.22,0.192c-0.043,0.073-0.074,0.119-0.127,0.187   l-0.141,0.198l-0.197-0.295c-0.059-0.089-0.072-0.122-0.081-0.202c-0.01-0.118,0.107-0.096,0.19-0.089l-0.014-0.155   c-0.149-0.018-0.313-0.038-0.48-0.067c-0.171-0.035-0.338-0.075-0.488-0.12l0.006,0.144c0.076,0.05,0.14,0.057,0.216,0.166   c0.057,0.079,0.119,0.156,0.162,0.251l0.435,0.657l-0.373,0.569c-0.091,0.143-0.196,0.285-0.365,0.264l0.009,0.145   c0.12,0.017,0.236,0.041,0.361,0.058c0.138,0.027,0.245,0.052,0.414,0.084l-0.011-0.142c-0.109-0.024-0.223-0.054-0.233-0.202   c-0.011-0.113,0.08-0.269,0.135-0.351l0.165-0.252l0.31,0.471c0.044,0.064,0.166,0.232,0.168,0.305   c0.002,0.047-0.016,0.076-0.046,0.09c-0.027,0.016-0.156,0.011-0.183,0.007l0.016,0.136c0.185,0.036,0.38,0.056,0.544,0.084   C28.551,28.663,28.658,28.691,28.888,28.727z"/>
	<g>
		<path fill="#FFFFFF" d="M70.4,49.121c-0.443,0-1.6,3.506-9.463,3.506c-2.859,0-2.587-0.818-2.587-2.824V33.26    c0-2.962,2.486-2.111,2.486-2.895c0-0.408-0.205-0.476-0.648-0.476c-0.51,0-1.327,0.136-3.268,0.136    c-1.667,0-2.722-0.136-3.437-0.136c-0.442,0-0.681,0.068-0.681,0.443c0,0.68,2.859,0.442,2.859,2.211v17.259    c0,1.598-0.068,2.551-0.952,2.959c-1.09,0.545-1.43,0.477-1.498,0.887c0,0.271,0.205,0.338,0.511,0.338    c1.36,0,2.79-0.102,4.151-0.135c2.587-0.068,5.173,0.135,7.761,0.135c1.498,0,2.247,0.07,3.336-1.156    c0.816-0.884,1.701-2.076,1.701-3.302C70.671,49.461,70.638,49.121,70.4,49.121z"/>
		<path fill="#FFFFFF" d="M77.247,51.094V32.817c0-2.554,2.451-1.771,2.451-2.588c0-0.272-0.102-0.34-0.646-0.34    c-1.055,0-2.111,0.137-3.166,0.137c-1.259,0-2.485-0.137-3.744-0.137c-0.271,0-0.34,0.068-0.34,0.375    c0,0.749,2.723,0.068,2.756,2.554v17.427c0,3.369-2.654,2.246-2.654,3.234c0,0.34,0.102,0.51,0.714,0.51    c0.477,0,1.191-0.137,3.268-0.137c1.464,0,2.928,0.137,3.71,0.137c0.578,0,0.681-0.104,0.681-0.34    C80.276,52.627,77.247,53.409,77.247,51.094z"/>
		<path fill="#FFFFFF" d="M104.475,29.889c-0.478,0-0.988,0.137-2.622,0.137c-0.75,0-1.498-0.137-2.247-0.137    c-0.34,0-0.511,0.102-0.511,0.442c0,0.783,2.179,0.136,2.179,1.702c0.136,0.715-0.272,1.805-0.476,2.314l-5.923,14.602    c-0.17,0.409-0.272,0.953-0.613,0.953c-0.374,0-0.612-0.781-1.361-2.586l-5.957-14.023c-0.135-0.307-0.307-0.85-0.307-1.327    c0-1.226,1.431-1.259,1.397-1.736c0-0.204-0.272-0.34-0.477-0.34c-0.477,0-1.771,0.137-2.69,0.137    c-1.021,0-2.076-0.137-3.131-0.137c-0.306,0-0.475,0.17-0.475,0.476c0,0.75,1.768,0.102,2.619,2.145l8.408,19.879    c0.306,0.715,0.715,2.145,1.258,2.145c0.511,0,0.75-1.124,1.124-1.974l8.475-20.05c0.953-2.28,1.906-1.429,1.906-2.178    C105.053,30.026,104.849,29.889,104.475,29.889z"/>
		<path fill="#FFFFFF" d="M124.191,49.121c-0.442,0-1.598,3.506-9.462,3.506c-2.859,0-2.586-0.818-2.586-2.824v-6.264    c0-0.512-0.102-1.09,0.614-1.09h5.036c2.86,0,1.703,2.994,2.758,2.994c0.238,0,0.374-0.135,0.374-0.44    c0-0.919-0.069-1.806-0.069-2.69c0-1.09,0.069-2.246,0.069-3.438c0-0.272-0.103-0.646-0.374-0.646    c-0.817,0,0.102,2.723-3.438,2.723h-3.677c-1.361,0-1.293,0-1.293-1.156v-6.332c0-2.28-0.068-2.145,3.199-2.145    c1.362,0,4.902-0.204,5.785,0.954c0.547,0.782,0,2.417,0.819,2.417c0.204,0,0.681-0.273,0.681-4.051    c0-0.409-0.068-0.749-0.342-0.749c-1.055,0-4.186,0.137-4.868,0.137c-1.428,0-3.198-0.137-9.631-0.137    c-0.988,0-1.192,0.137-1.192,0.409c0,0.408,0.749,0.477,1.021,0.544c1.838,0.273,1.838,1.906,1.838,3.438v15.522    c0,1.598-0.068,2.551-0.954,2.959c-1.089,0.545-1.429,0.477-1.497,0.887c0,0.271,0.204,0.338,0.51,0.338    c1.362,0,2.792-0.102,4.152-0.137c2.587-0.066,5.175,0.137,7.761,0.137c1.498,0,2.247,0.07,3.335-1.156    c0.818-0.887,1.702-2.076,1.702-3.302C124.464,49.461,124.432,49.121,124.191,49.121z"/>
		<path fill="#FFFFFF" d="M180.839,29.583c-6.974,0-12.491,5.14-12.491,12.22c0,7.182,4.528,12.422,11.914,12.422    c7.59,0,12.869-4.934,12.869-12.592C193.131,34.586,187.784,29.583,180.839,29.583z M181.691,53.205    c-6.74,0-10.858-6.093-10.858-12.389c0-5.381,3.268-10.111,8.985-10.111c6.637,0,10.823,6.025,10.823,12.22    C190.642,49.223,186.662,53.205,181.691,53.205z"/>
		<path fill="#FFFFFF" d="M208.178,29.583c-6.979,0-12.493,5.14-12.493,12.22c0,7.182,4.527,12.422,11.913,12.422    c7.593,0,12.868-4.934,12.868-12.592C220.466,34.586,215.12,29.583,208.178,29.583z M209.028,53.205    c-6.738,0-10.858-6.093-10.858-12.389c0-5.381,3.268-10.111,8.985-10.111c6.641,0,10.827,6.025,10.827,12.22    C217.982,49.223,213.997,53.205,209.028,53.205z"/>
		<path fill="#FFFFFF" d="M239.301,49.121c-0.445,0-1.6,3.506-9.464,3.506c-2.859,0-2.587-0.818-2.587-2.824V33.26    c0-2.962,2.485-2.111,2.485-2.895c0-0.408-0.204-0.476-0.646-0.476c-0.511,0-1.328,0.136-3.268,0.136    c-1.67,0-2.726-0.136-3.441-0.136c-0.442,0-0.679,0.068-0.679,0.443c0,0.68,2.86,0.442,2.86,2.211v17.259    c0,1.598-0.07,2.551-0.954,2.959c-1.089,0.545-1.43,0.477-1.498,0.887c0,0.271,0.204,0.338,0.511,0.338    c1.361,0,2.792-0.102,4.153-0.135c2.585-0.068,5.176,0.135,7.76,0.135c1.497,0,2.246,0.07,3.334-1.156    c0.817-0.884,1.703-2.076,1.703-3.302C239.571,49.461,239.538,49.121,239.301,49.121z"/>
		<rect x="45.137" y="24.388" fill="#FFFFFF" width="198.863" height="0.517"/>
		<rect x="87.664" y="7.548" fill="#FFFFFF" width="1.484" height="11.929"/>
		<polygon fill="#FFFFFF" points="120.779,18.154 114.448,18.154 114.448,14.041 120.655,14.041 120.655,12.717 114.448,12.717     114.448,8.872 120.779,8.872 120.779,7.548 112.965,7.548 112.965,19.477 120.779,19.477   "/>
		<polygon fill="#FFFFFF" points="101.986,19.477 106.78,7.548 105.082,7.548 101.056,17.85 97.033,7.548 95.333,7.548     100.144,19.477   "/>
		<polygon fill="#FFFFFF" points="71.854,9.962 78.812,19.477 80.243,19.477 80.243,7.548 78.759,7.548 78.759,16.867 71.89,7.548     70.371,7.548 70.371,19.477 71.854,19.477   "/>
		<path fill="#FFFFFF" d="M58.066,19.692c3.237,0,4.883-1.896,4.883-4.864v-7.28h-1.502v7.262c0,2.181-1.181,3.558-3.38,3.558    s-3.362-1.377-3.362-3.558V7.548h-1.502v7.297C53.202,17.778,54.847,19.692,58.066,19.692z"/>
		<polygon fill="#FFFFFF" points="227.254,14.041 233.462,14.041 233.462,12.717 227.254,12.717 227.254,8.872 233.587,8.872     233.587,7.548 225.771,7.548 225.771,19.477 227.254,19.477   "/>
		<polygon fill="#FFFFFF" points="187.073,19.477 188.557,19.477 188.557,14.435 193.246,7.548 191.51,7.548 187.808,13.092     184.104,7.548 182.37,7.548 187.073,14.435   "/>
		<polygon fill="#FFFFFF" points="170.909,19.477 172.394,19.477 172.394,8.872 176.187,8.872 176.187,7.548 167.135,7.548     167.135,8.872 170.909,8.872   "/>
		<path fill="#FFFFFF" d="M129.688,14.739h2.395l3.021,4.738h1.754l-3.219-4.864c1.627-0.143,3.111-1.323,3.111-3.47    c0-2.2-1.574-3.595-3.756-3.595h-4.793v11.929h1.486V14.739z M129.688,8.872h3.127c1.415,0,2.398,0.912,2.398,2.271    c0,1.342-0.983,2.29-2.398,2.29h-3.127V8.872z"/>
		<path fill="#FFFFFF" d="M212.875,19.692c3.525,0,5.938-2.647,5.938-6.17c0-3.523-2.413-6.171-5.938-6.171    c-3.521,0-5.921,2.648-5.921,6.171C206.954,17.044,209.354,19.692,212.875,19.692z M212.875,8.674    c2.667,0,4.399,2.057,4.399,4.847c0,2.772-1.732,4.846-4.399,4.846c-2.683,0-4.382-2.074-4.382-4.846    C208.493,10.731,210.192,8.674,212.875,8.674z"/>
		<rect x="158.698" y="7.548" fill="#FFFFFF" width="1.484" height="11.929"/>
		<path fill="#FFFFFF" d="M147.622,18.368c-1.68,0-2.968-0.822-3.738-1.716l-0.894,1.145c0.985,1.109,2.522,1.896,4.579,1.896    c3.219,0,4.398-1.788,4.398-3.506c0-4.453-7.063-2.914-7.063-5.598c0-1.127,1.038-1.896,2.45-1.896    c1.305,0,2.558,0.429,3.451,1.43l0.896-1.091c-1.001-1.056-2.415-1.682-4.222-1.682c-2.362,0-4.112,1.361-4.112,3.328    c0,4.256,7.062,2.54,7.062,5.615C150.429,17.224,149.75,18.368,147.622,18.368z"/>
		<path fill="#FFFFFF" d="M154.662,32.102c0-1.021,0.749-1.021,1.838-1.021c3.915,0,7.08,2.179,7.08,6.296    c0,3.063-2.043,4.731-5.514,4.731c-1.228,0-1.939-0.204-2.214-0.204c-0.168,0-0.34,0.066-0.34,0.306    c0,0.613,1.975,0.784,2.313,0.784c7.25,0,8.272-5.176,8.272-6.535c0-5.072-4.798-6.569-9.123-6.569    c-1.633,0-2.177,0.136-3.88,0.136c-1.975,0-3.166-0.136-3.471-0.136c-0.272,0-0.442,0.238-0.442,0.509    c0,1.227,2.791-0.85,2.791,3.234v16.305c0,3.778-2.656,2.724-2.656,3.642c0,0.306,0.341,0.407,0.546,0.407    c0.989,0,2.11-0.135,3.71-0.135c2.008,0,2.519,0.135,3.676,0.135c0.853,0,0.987-0.168,0.987-0.407    c0-1.157-3.574,0.612-3.574-4.288V32.102z"/>
		<path fill="#FFFFFF" d="M138.328,41.666c2.382-0.953,4.288-3.232,4.288-5.889c0-6.568-7.522-5.888-8.066-5.888    c-1.771,0-3.712,0.137-5.685,0.137c-1.736,0-1.568-0.137-2.18-0.137c-0.408,0-0.68,0.204-0.68,0.409    c0,1.157,2.928-0.238,2.928,3.028v17.326c0,2.586-2.486,2.109-2.486,2.961c0,0.205,0.137,0.373,0.339,0.373    c1.296,0,2.589-0.137,3.884-0.137c2.822,0,3.608,0.137,3.913,0.137c0.272,0,0.579,0.07,0.579-0.271    c0-1.156-3.541-0.103-3.541-3.028v-7.184c0-0.34-0.205-0.953,0.883-0.953c3.813,0,3.304-0.102,4.529,1.803l3.778,5.958    c1.295,1.94,2.622,3.675,5.107,3.675c0.304,0,2.212,0,2.212-0.407c0-0.817-1.668,0.444-4.12-3.301L138.328,41.666z     M131.621,32.272c0-1.329,0.713-1.26,1.941-1.26c3.336,0,6.5,1.396,6.5,5.547c0,4.223-3.268,4.835-4.73,4.835    c-1.6,0-3.711,0.17-3.711-0.477V32.272z"/>
	</g>
</g>
</svg>